# xmcd
#
# Track frame offsets:
#	150
#	17431
#	32263
#	46966
#	61580
#	75419
#	96516
#	113769
#	128813
#	143529
#	158135
#	171974
#
# Disc length: 2574 seconds
#
# Revision: 1
# Processed by: cddbd v1.5.2PL0 Copyright (c) Steve Scherf et al.
# Submitted via: audiograbber 1.83.01
#
DISCID=850a0c0c
DTITLE=randy travis - CB20187
DYEAR=1900
DGENRE=
TTITLE0=MY NEXT THIRTY YEARS
TTITLE1=A LITTLE LEFT OF CENTER
TTITLE2=STUFF
TTITLE3=RIGHT WHERE I NEED TO BE
TTITLE4=BEAUTY'S IN THE EYE OF THE BEERHOLDER
TTITLE5=WHEN YOU COME BACK TO ME AGAIN 
TTITLE6=MY NEXT THIRTY YEARS
TTITLE7=A LITTLE LEFT OF CENTER
TTITLE8=STUFF
TTITLE9=RIGHT WHERE I NEED TO BE
TTITLE10=BEAUTY'S IN THE EYE OF THE BEERHOLDER
TTITLE11=WHEN YOU COME BACK TO ME AGAIN 
EXTD=
EXTT0=
EXTT1=
EXTT2=
EXTT3=
EXTT4=
EXTT5=
EXTT6=
EXTT7=
EXTT8=
EXTT9=
EXTT10=
EXTT11=
PLAYORDER=
